<svg width="97" height="97" viewBox="0 0 97 97" fill="none" xmlns="http://www.w3.org/2000/svg">
<g clip-path="url(#clip0)">
<path d="M61.168 83.9199H11.364V13.0249H61.17C62.274 13.0249 63.17 12.1289 63.17 11.0249V3.65991C63.17 2.55591 62.274 1.65991 61.17 1.65991H2C0.896 1.65991 0 2.55591 0 3.65991V93.2829C0 94.3869 0.896 95.2829 2 95.2829H61.168C62.273 95.2829 63.168 94.3869 63.168 93.2829V85.9199C63.168 84.8139 62.274 83.9199 61.168 83.9199Z" fill="black"/>
<path d="M96.3551 47.0578L69.4331 20.1378C68.6831 19.3868 67.3551 19.3878 66.6051 20.1378L60.2181 26.5258C59.4371 27.3068 59.4371 28.5728 60.2181 29.3538L72.3781 41.5158H19.7371C18.6331 41.5158 17.7371 42.4118 17.7371 43.5158V53.4278C17.7371 54.5318 18.6331 55.4278 19.7371 55.4278H72.3811L60.2211 67.5898C59.4401 68.3708 59.4401 69.6368 60.2211 70.4178L66.6081 76.8068C66.9831 77.1818 67.4931 77.3928 68.0221 77.3928C68.5531 77.3928 69.0611 77.1818 69.4361 76.8068L96.3581 49.8868C96.7331 49.5118 96.9441 49.0018 96.9441 48.4728C96.9431 47.9408 96.7301 47.4328 96.3551 47.0578Z" fill="black"/>
</g>
<defs>
<clipPath id="clip0">
<rect width="96.943" height="96.943" fill="white"/>
</clipPath>
</defs>
</svg>
