<svg width="97" height="95" viewBox="0 0 97 95" fill="none" xmlns="http://www.w3.org/2000/svg">
<path d="M61.168 82.9199H11.364V12.0249H61.17C62.274 12.0249 63.17 11.1289 63.17 10.0249V2.65991C63.17 1.55591 62.274 0.659912 61.17 0.659912H2C0.896 0.659912 0 1.55591 0 2.65991V92.2829C0 93.3869 0.896 94.2829 2 94.2829H61.168C62.273 94.2829 63.168 93.3869 63.168 92.2829V84.9199C63.168 83.8139 62.274 82.9199 61.168 82.9199Z" fill="white"/>
<path d="M96.3551 46.0578L69.4331 19.1378C68.6831 18.3868 67.3551 18.3878 66.6051 19.1378L60.2181 25.5258C59.4371 26.3068 59.4371 27.5728 60.2181 28.3538L72.3781 40.5158H19.7371C18.6331 40.5158 17.7371 41.4118 17.7371 42.5158V52.4278C17.7371 53.5318 18.6331 54.4278 19.7371 54.4278H72.3811L60.2211 66.5898C59.4401 67.3708 59.4401 68.6368 60.2211 69.4178L66.6081 75.8068C66.9831 76.1818 67.4931 76.3928 68.0221 76.3928C68.5531 76.3928 69.0611 76.1818 69.4361 75.8068L96.3581 48.8868C96.7331 48.5118 96.9441 48.0018 96.9441 47.4728C96.9431 46.9408 96.7301 46.4328 96.3551 46.0578Z" fill="white"/>
</svg>
