<svg width="512" height="486" viewBox="0 0 512 486" fill="none" xmlns="http://www.w3.org/2000/svg">
<path d="M508.745 233.041C504.171 226.784 395.188 79.835 255.997 79.835C116.806 79.835 7.818 226.784 3.249 233.035C-1.083 238.971 -1.083 247.022 3.249 252.958C7.818 259.215 116.806 406.164 255.997 406.164C395.188 406.164 504.171 259.214 508.745 252.963C513.083 247.028 513.083 238.971 508.745 233.041ZM255.997 372.406C153.468 372.406 64.667 274.873 38.38 242.988C64.633 211.075 153.248 113.593 255.997 113.593C358.521 113.593 447.316 211.109 473.614 243.011C447.361 274.923 358.746 372.406 255.997 372.406Z" fill="#B3B3B3"/>
<path d="M255.997 141.725C200.155 141.725 154.722 187.158 154.722 243C154.722 298.842 200.155 344.275 255.997 344.275C311.839 344.275 357.272 298.842 357.272 243C357.272 187.158 311.839 141.725 255.997 141.725ZM255.997 310.516C218.767 310.516 188.481 280.229 188.481 243C188.481 205.771 218.768 175.484 255.997 175.484C293.226 175.484 323.513 205.771 323.513 243C323.513 280.229 293.227 310.516 255.997 310.516Z" fill="#B3B3B3"/>
<rect x="372.312" width="41.7026" height="536.625" rx="20.8513" transform="rotate(30 372.312 0)" fill="#B3B3B3"/>
</svg>
